<svg width="1440" height="177" viewBox="0 0 1440 177" fill="none" xmlns="http://www.w3.org/2000/svg">
<g clip-path="url(#clip0_5194_789)">
<mask id="mask0_5194_789" style="mask-type:luminance" maskUnits="userSpaceOnUse" x="0" y="0" width="1440" height="177">
<path d="M0 0H1440V177H0V0Z" fill="white"/>
</mask>
<g mask="url(#mask0_5194_789)">
<path d="M0 0H1440V177H0V0Z" fill="#301534"/>
<path d="M-676 -100.669C-454 -5.53189 -396.863 39.7624 -197.5 79.3728C-99 98.9435 -36.919 94.4322 -4.75098 94.0904C99.736 92.9786 199.858 70.1749 293.882 46.8009C332.236 37.2662 369.764 26.7839 405.945 14.9243C429.848 7.08932 464.815 -3.83379 470.666 -20.708C472.986 -27.4019 454.297 -27.4782 446.895 -26.1225C433.384 -23.6478 420.945 -16.9716 410.839 -11.9243C391.708 -2.37022 373.777 7.95938 357.604 19.0678C323.876 42.2343 289.57 74.5169 323.446 103.151C340.733 117.761 367.386 128.424 395.558 135.855C451.74 150.674 514.763 157.284 576.336 160.273C740.774 168.256 905.3 158.359 1059.34 125.083C1139.1 107.854 1217.89 86.0656 1283.57 55.2532C1332.13 32.4722 1386.37 1.85012 1394.23 -34.8508C1405.16 -85.8418 1300.19 -110.11 1224.94 -116.945C1163.53 -122.522 1101.19 -119.248 1040.87 -111.641C962.608 -101.773 891.864 -85.2737 826.629 -59.435C696.627 -7.94296 591.679 66.9059 554.163 153.976C538.523 190.274 537.515 230.423 559.656 266.012C581.108 300.492 628.852 327.174 683.704 346.172C748.821 368.725 820.865 380.543 896.543 386.666C997.017 394.795 1099.36 393.433 1199.57 385.009C1375.74 370.2 1552.3 336.095 1704.75 284.85C1807.97 250.156 1904.05 210.649 1984.81 160.715C2002.51 149.767 2016.62 138.106 2028.55 125.027C2172.11 -32.3584 2095.5 -80.4958 2095.5 -83.5225" stroke="#AD28EB" stroke-width="3" stroke-linecap="round"/>
</g>
</g>
<defs>
<clipPath id="clip0_5194_789">
<rect width="1440" height="177" fill="white"/>
</clipPath>
</defs>
</svg>
